<svg width="196" height="51" viewBox="0 0 196 51" fill="none" xmlns="http://www.w3.org/2000/svg">
<path fill-rule="evenodd" clip-rule="evenodd" d="M35.8247 1.582C39.2277 3.812 40.8027 9.066 39.3697 13.409C38.1807 17.011 33.6547 19.96 29.1887 20.044C25.8567 20.106 19.5527 22.497 17.2677 24.565C14.5767 27 15.7087 27.644 18.9477 25.521C22.7847 23.007 28.9667 23.959 34.7797 27.959C37.3647 29.738 39.6637 31.009 39.8887 30.784C41.5237 29.15 52.3397 9.173 52.3397 7.789C52.3397 6.83 51.2147 5.309 49.8397 4.408C45.5807 1.618 46.6537 0 52.7627 0C57.0937 0 58.7867 0.505003 61.1667 2.508C63.6207 4.573 82.3397 34.569 82.3397 36.436C82.3397 36.746 81.0567 37 79.4877 37C74.0987 37 70.2377 33.094 62.3417 19.656L54.8397 6.89L54.3047 11.195C53.9917 13.717 52.0247 18.423 49.5547 22.558C44.8497 30.437 44.1707 34 47.3747 34C50.4247 34 48.2067 37.502 44.2927 38.866C40.3347 40.246 36.0777 38.809 27.4347 33.175C22.7317 30.109 20.0077 29 17.1847 29C14.5257 29 13.3397 28.561 13.3397 27.577C13.3397 24.906 18.6477 19.839 23.8607 17.533C29.5717 15.007 31.1237 12.191 29.3597 7.551C28.0087 3.999 24.6847 2.991 14.5247 3.052C6.33773 3.102 5.96873 3.195 8.08973 4.674C10.2577 6.187 10.3397 6.804 10.3397 21.689V37.135L8.08973 36.487C6.85173 36.13 4.82773 34.725 3.58973 33.363C1.47773 31.04 1.33973 30.016 1.33973 16.644C1.33973 6.899 0.960732 2.021 0.139732 1.2C-0.793268 0.266997 2.76973 0 16.1747 0C30.2077 0 33.8587 0.294001 35.8247 1.582ZM83.3817 1.522C85.4447 2.588 88.5687 6.85 93.8297 15.772C98.4267 23.569 101.335 27.641 101.337 26.284C101.339 25.065 104.536 18.652 108.442 12.034L115.545 0H124.545H133.546L137.115 3.75C139.078 5.813 144.094 13.345 148.262 20.488C152.504 27.759 156.582 33.619 157.526 33.8C160.001 34.273 161.328 28.317 161.334 16.7C161.338 10.065 161.812 5.987 162.803 4.072C164.265 1.244 167.088 -0.583001 168.233 0.556999C168.567 0.888999 168.985 7.324 169.162 14.857C169.52 30.11 169.662 29.722 161.32 36.203C158.218 38.613 158.078 38.911 160.033 38.953C161.239 38.979 163.846 38.044 165.825 36.876C170.217 34.285 175.055 34.785 179.683 38.308C184.097 41.669 190.876 45 193.3 45C196.11 45 195.853 46.451 192.59 49.018C189.029 51.819 184.721 51.182 177.901 46.847C164.979 38.632 161.923 38.417 155.098 45.242L151.06 49.28L149.223 46.89L147.386 44.5L152.113 40.288L156.84 36.077L153.167 36.038C147.789 35.982 144.794 32.862 136.84 19.03L129.84 6.858L129.284 11.179C128.945 13.812 127.024 18.235 124.367 22.5C121.697 26.785 119.973 30.759 119.923 32.747C119.845 35.817 119.636 35.994 116.09 35.997C114.028 35.999 112.34 35.764 112.34 35.476C112.34 35.188 115.715 29.21 119.84 22.193C123.965 15.175 127.34 8.672 127.34 7.74C127.34 5.529 123.054 2.756 120.28 3.173C117.406 3.605 95.3397 40.692 95.3397 45.09C95.3397 47.657 94.9857 48 92.3397 48C88.5637 48 88.4237 46.003 91.8137 40.5C93.1687 38.3 94.2917 35.983 94.3087 35.351C94.3257 34.72 91.0617 28.645 87.0547 21.851C83.0477 15.058 78.5287 7.362 77.0127 4.75L74.2557 0H77.3477C79.0477 0 81.7637 0.685003 83.3817 1.522Z" fill="black"/>
</svg>
